<?xml version="1.0" encoding="UTF-8"?> <svg xmlns="http://www.w3.org/2000/svg" xmlns:xlink="http://www.w3.org/1999/xlink" id="_Слой_2" data-name="Слой 2" viewBox="0 0 509.21 156.93"> <defs> <style> .cls-1 { fill: url(#_Безымянный_градиент_7); } .cls-2 { fill: #fbfdff; } .cls-2, .cls-3, .cls-4 { fill-rule: evenodd; } .cls-5 { fill: #fff; } .cls-6 { fill: #00b2e7; } .cls-7 { fill: url(#_Безымянный_градиент_12-2); } .cls-8, .cls-3 { fill: #df383a; } .cls-9 { fill: #0065a0; } .cls-4 { fill: url(#_Безымянный_градиент_12-3); } .cls-10 { clip-rule: evenodd; fill: none; } .cls-11 { fill: url(#_Безымянный_градиент_12); } .cls-12 { fill: url(#_Безымянный_градиент_7-2); } </style> <linearGradient id="_Безымянный_градиент_7" data-name="Безымянный градиент 7" x1="8.86" y1="20.05" x2="75.58" y2="20.05" gradientUnits="userSpaceOnUse"> <stop offset="0" stop-color="#1c517f"></stop> <stop offset="1" stop-color="#5fafdc"></stop> </linearGradient> <linearGradient id="_Безымянный_градиент_12" data-name="Безымянный градиент 12" x1="2.95" y1="71.15" x2="106.9" y2="71.15" gradientUnits="userSpaceOnUse"> <stop offset="0" stop-color="#13426d"></stop> <stop offset="1" stop-color="#296ec0"></stop> </linearGradient> <linearGradient id="_Безымянный_градиент_12-2" data-name="Безымянный градиент 12" x1="40.99" y1="124.84" x2="125.36" y2="124.84" xlink:href="#_Безымянный_градиент_12"></linearGradient> <linearGradient id="_Безымянный_градиент_7-2" data-name="Безымянный градиент 7" x1="2.3" y1="91.24" x2="161.73" y2="91.24" xlink:href="#_Безымянный_градиент_7"></linearGradient> <clipPath id="clippath"> <polygon class="cls-10" points="62.78 45.83 57.03 47.54 52.77 49.14 49.32 50.81 46.01 52.7 37.11 57.58 30.21 60.86 20.72 64.9 16.71 66.65 14.3 67.87 11.86 69.33 10.64 70.21 9.46 71.11 8.34 72.12 7.3 73.2 6.32 74.39 5.45 75.65 4.68 77.01 4.09 78.47 3.77 79.45 3.49 80.39 3.32 81.33 3.18 82.2 3.08 82.97 3.01 83.63 2.97 84.16 2.97 84.54 2.94 85.52 2.94 86.74 3.04 88.24 3.29 89.91 3.7 91.72 3.98 92.67 4.37 93.61 4.79 94.58 5.27 95.56 5.87 96.5 6.53 97.44 6.98 98.04 7.47 98.56 7.92 99.05 8.38 99.47 8.83 99.85 9.25 100.2 10.02 100.79 10.22 100.9 10.33 100.93 10.4 100.97 10.43 100.97 10.89 101.11 11.38 101.21 11.83 101.25 12.25 101.28 12.7 101.28 13.08 101.25 13.47 101.21 13.82 101.14 14.44 100.97 14.9 100.83 15.21 100.69 15.32 100.65 17.02 100.55 18.84 100.34 20.76 100.03 22.74 99.57 24.8 98.94 26.89 98.14 28.99 97.13 31.08 95.91 32.16 95.14 33.1 94.41 33.98 93.68 34.71 92.98 35.33 92.35 35.86 91.79 36.59 90.99 38.23 89.21 39.94 87.54 43.53 84.33 51.06 78.33 66.62 66.93 86.36 53.61 96.65 47.15 101.84 44.05 104.6 42.48 104.81 42.34 105.09 42.17 105.71 41.71 106.06 41.47 106.38 41.29 106.52 41.22 106.66 41.19 106.8 41.15 106.83 41.15 106.9 41.15 100.1 41.01 95.36 41.08 90.65 41.33 85.94 41.68 81.27 42.24 76.59 42.9 71.96 43.74 67.35 44.71 62.78 45.83"></polygon> </clipPath> <clipPath id="clippath-2"> <polygon class="cls-10" points="13.19 40.11 13.19 40.11 14.9 38.33 23.44 30.1 25.29 28.53 27.1 27.06 30.66 24.45 33.91 22.25 36.63 20.51 46.04 14.82 55.74 9.52 65.61 4.6 75.58 0 67.56 1.05 63.59 1.74 59.64 2.58 55.7 3.56 51.83 4.71 48 5.96 44.19 7.39 39.35 9.45 34.6 11.79 29.96 14.37 25.5 17.16 23.3 18.66 21.17 20.19 19.05 21.8 16.99 23.44 13.01 26.85 12.77 27.1 12.53 27.31 12.28 27.55 12 27.8 11.2 28.63 10.61 29.3 10.05 29.99 9.46 30.8 9.42 30.83 9.39 30.9 9.32 30.93 9.28 31 9.25 31.08 9.21 31.18 9.14 31.25 9.11 31.35 9.11 31.39 9.07 31.42 9.07 31.46 9.04 31.49 9.04 31.53 9.04 31.56 9 31.56 8.86 32.3 8.86 32.61 8.9 33.1 8.97 33.76 9.07 34.49 9.32 35.33 9.46 35.75 9.63 36.2 9.88 36.62 10.12 37.07 10.4 37.49 10.71 37.91 10.89 38.08 11.06 38.29 11.34 38.61 11.69 38.92 12.11 39.31 12.63 39.69 13.19 40.11"></polygon> </clipPath> <linearGradient id="_Безымянный_градиент_12-3" data-name="Безымянный градиент 12" x1="88.14" y1="147.83" x2="134.94" y2="147.83" xlink:href="#_Безымянный_градиент_12"></linearGradient> </defs> <g id="_Слой_1-2" data-name="Слой 1"> <g> <g> <path class="cls-1" d="m75.58,0c-13.32,5.93-26.61,12.63-38.96,20.51-3.21,2.06-8.33,5.27-13.18,9.59-1.25,1.12-4.6,4.19-8.54,8.23-.73.73-1.33,1.36-1.71,1.78-1.64-1.12-2.48-2.2-2.48-2.2-1.85-2.16-1.88-5.06-1.85-5.62l.14-.73s.03-.1.1-.21c.1-.28.24-.45.35-.56.77-1.08,1.74-2.16,1.74-2.16.45-.45.73-.77.8-.84.35-.35.7-.63,1.01-.94,1.29-1.15,2.62-2.3,3.98-3.42,2.72-2.23,5.55-4.32,8.51-6.28,5.86-3.87,12.14-7.19,18.69-9.77,10.01-4.01,20.68-6.35,31.39-7.39Z"></path> <path class="cls-11" d="m106.9,41.15c-.52-.03-1.81,1.05-2.3,1.33-.91.52-1.81,1.05-2.76,1.57-1.74,1.05-3.45,2.06-5.2,3.1-3.45,2.09-6.91,4.25-10.29,6.45-6.73,4.29-13.22,8.86-19.74,13.32-5.3,3.63-10.5,7.46-15.55,11.4s-10.22,7.85-14.47,12.66c-.66.77-2.48,2.9-5.51,4.92-5.51,3.63-11.4,4.57-15.76,4.74,0,0-2.34,1.19-4.88.31-.1-.03-.24-.1-.42-.17-.91-.66-2.23-1.74-3.49-3.35-3.8-4.99-3.63-10.78-3.56-12.9,0-.73.17-3.52,1.12-6.07,2.86-8.02,12.35-11.79,16.64-13.57,29.3-11.89,24.17-14.33,42.06-19.08,14.33-3.77,29.3-5.34,44.12-4.67Z"></path> <path class="cls-7" d="m125.36,99.01c-19.67,7.81-34.99,22.22-49.46,37.74-3.59,3.8-7.01,7.85-10.11,12.14-.21.28-.42.56-.7.84-1.08.91-2.34,1.12-7.81.8-6.38-.38-9.63-.59-11.05-1.81-1.15-1.01-2.79-2.79-3.87-4.25-.59-.8-1.08-1.5-1.36-1.99.07-.38.24-1.08.49-1.99,4.15-13.95,18.17-22.18,21.52-24.41,18.07-10.99,37.5-16.95,58.42-16.85,1.29,0,2.72.24,3.94-.21Z"></path> <path class="cls-12" d="m158.17,47.26c.91-.49,3.52-1.85,3.56-1.85-.17.07-.31,1.36-.35,1.53-.21.98-.35,1.92-.56,2.86-.42,1.99-.91,3.98-1.5,5.93-2.82,9.42-7.53,17.75-13.99,25.18-1.33,1.5-2.68,2.96-4.08,4.43-9.49,9.84-20.96,17.61-32.82,24.41-22.98,13.15-48.06,23.05-74.36,26.89-1.15.17-2.13.31-2.82.42-.1,0-.21,0-.35-.04-.17-.03-1.22-.24-1.29-.28-10.08-2.9-17.82-13.92-22.01-22.95-4.99-10.67-7.08-23.93-3.56-35.37,2.37,1.36,4.32,3.63,6.66,5.13,2.55,1.67,5.27,3.07,8.09,4.19,9.66,3.84,20.54,3.8,30.59,1.85,23.47-4.46,45.93-13.46,67.94-22.53,7.85-3.24,15.66-6.59,23.3-10.32,5.51-2.69,8.37-4.01,11.47-5.93,1.05-.66,3.17-1.99,6.07-3.56Z"></path> <path class="cls-2" d="m119.46,1.81c-12.97,8.37-26.19,16.32-40.25,22.84-14.47,6.73-29.61,12.63-45.3,15.73-1.92.35-3.84.7-5.75.98-3.52.52-7.15.87-10.57-.1-1.29-.38-2.48-.84-3.73-1.88,0,0-2.51-2.13-4.43-8.68.03-.03-1.46,1.99-2.37,3.38-.35.56-1.12,1.95-2.27,4.46C1.99,44.61-.13,51.72,0,58.45c.03,2.41.7,4.85,2.27,6.7,1.78,2.13,4.57,3.14,7.32,3.56,7.29,1.05,15.28.56,22.46-1.01,7.53-1.64,14.79-4.26,21.83-7.32,14.89-6.42,28.95-14.37,42.34-23.58.45-.31.91-.63,1.4-.94,5.3-3.73,10.53-7.64,14.68-12.59,5.06-6.1,7.81-13.5,7.15-21.45Z"></path> <path class="cls-9" d="m119.11,2.51c.43,7.28-2.02,14.36-7.11,20.5-4.22,5.04-9.53,8.95-14.59,12.51-.46.29-.88.59-1.31.88l-.1.07c-13.77,9.46-27.99,17.38-42.27,23.54-7.92,3.45-15.04,5.84-21.76,7.3-4.66,1.02-9.61,1.56-14.3,1.56-2.78,0-5.47-.19-8.01-.55-3.21-.49-5.59-1.64-7.08-3.42-1.75-2.06-2.15-4.64-2.17-6.45-.16-7.46,2.49-14.85,4.74-19.74,1.33-2.9,2.05-4.11,2.24-4.41.57-.88,1.38-2.01,1.89-2.72,1.89,6,4.22,8.02,4.32,8.11,1.25,1.04,2.45,1.54,3.88,1.96,1.49.43,3.11.63,4.93.63,2.04,0,4.08-.26,5.8-.52,1.96-.28,3.89-.64,5.77-.98,13.66-2.7,28.09-7.71,45.39-15.76,15.03-6.97,29.07-15.64,39.73-22.51m.35-.7c-12.97,8.37-26.19,16.32-40.25,22.84-14.47,6.73-29.61,12.63-45.3,15.73-1.92.35-3.84.7-5.75.98-1.9.28-3.83.51-5.74.51-1.63,0-3.25-.17-4.82-.62-1.29-.38-2.48-.84-3.73-1.88,0,0-2.51-2.13-4.43-8.68-.03.05-1.48,2.02-2.37,3.38-.35.56-1.12,1.95-2.27,4.46C1.99,44.61-.13,51.72,0,58.45c.03,2.41.7,4.85,2.27,6.7,1.78,2.13,4.57,3.14,7.32,3.56,2.62.38,5.34.55,8.07.55,4.86,0,9.79-.56,14.39-1.57,7.53-1.64,14.79-4.26,21.83-7.32,14.89-6.42,28.95-14.37,42.34-23.58.45-.31.91-.63,1.4-.94,5.3-3.73,10.53-7.64,14.68-12.59,5.06-6.1,7.81-13.5,7.15-21.45h0ZM9.42,30.69s0,0,0,0c0,0,0,0,0,0,0,0,0,0,0,0h0Z"></path> <path class="cls-4" d="m134.94,139.58c-2.86,2.89-4.71,6.03-8.09,8.47-3.38,2.44-7.19,4.32-11.09,5.68-8.93,3.07-18.66,3.07-27.62.38,1.99-.45,4.12-1.01,6.28-1.64,1.67-.45,3.35-1.22,5.06-1.53,1.53-.31,3.24-.14,4.81-.24,3.38-.17,6.77-.7,10.04-1.53,7.39-1.88,14.19-5.62,20.61-9.59Z"></path> <path class="cls-3" d="m166.4,103.9c-.87.73-2.13,1.78-3.66,3.03,0,0-.31.24-.8.63,0,0-.91.73-1.81,1.43-11.89,9.1-25.25,16.01-38.96,21.97-12.97,5.58-26.65,12-40.42,15.24-11.23,2.69-23.16,2.76-34.11-1.25-.98-.38-1.95-.77-2.9-1.19-.8-.35-1.95-1.15-2.75-1.15,0,.98.56,1.99,1.15,2.75,1.22,1.57,2.9,3.07,4.46,4.32,7.88,6.42,18.07,7.64,27.9,7.15,13.6-.7,23.75-4.18,30.83-6.7,9.56-3.38,18.73-7.92,27.27-13.43.21-.1.42-.24.63-.38,13.22-8.68,24.38-19.39,33.17-32.43Z"></path> </g> <g> <path class="cls-5" d="m245.64.71l-45.07-.03-1.42,23.7c-.2,2.98-.47,5.6-.81,7.87-.34,2.27-.81,4.27-1.46,6.04-.61,1.73-1.42,3.26-2.37,4.55-.98,1.29-2.17,2.41-3.63,3.32h-4.75l-.03,24.59h13.33l.03-13.09,38.63.07-.03,13.09h13.29l.03-24.55h-5.8l.07-45.55Zm-14.68,45.51l-23.16-.03c1.12-1.53,2.03-3.22,2.68-4.99.64-1.8,1.19-3.66,1.56-5.6.37-1.9.61-3.8.75-5.7.14-1.9.27-3.73.37-5.49l.78-12.24h17.09l-.07,34.05Z"></path> <path class="cls-5" d="m295.01,20.28c-3.73-2.75-8.78-4.14-15.23-4.14-2.85,0-5.56.34-8.07,1.02-2.54.68-4.75,1.7-6.68,3.02-1.9,1.32-3.43,2.95-4.51,4.95-1.09,1.97-1.63,4.27-1.66,6.85v10.28c0,5.26,1.83,9.19,5.53,11.87,3.76,2.68,8.85,4.04,15.33,4.04,3.05,0,5.87-.34,8.45-1.02,2.54-.68,4.75-1.7,6.58-3.02,1.87-1.32,3.29-2.95,4.27-4.95,1.02-1.97,1.49-4.27,1.53-6.85v-10.04c0-5.22-1.83-9.22-5.53-12.01Zm-8.28,21.2c0,2.14-.75,3.66-2.24,4.51-1.49.88-3.09,1.32-4.75,1.32s-3.36-.44-4.85-1.32-2.24-2.41-2.24-4.54l.03-8.61c0-2.14.75-3.66,2.24-4.51,1.49-.88,3.12-1.32,4.85-1.32s3.26.44,4.75,1.32c1.49.88,2.24,2.41,2.24,4.54l-.03,8.61Z"></path> <polygon class="cls-5" points="410.49 .95 393.83 .91 383.32 17.53 372.88 .88 356.16 .88 375.45 28.69 354.84 57.89 371.59 57.89 383.29 39.88 394.95 57.92 411.71 57.95 391.19 28.69 410.49 .95"></polygon> <polygon class="cls-5" points="495.44 17.05 495.4 32.18 480.79 32.18 480.82 17.05 467.32 17.02 467.26 58.02 480.75 58.06 480.79 42.15 495.4 42.18 495.37 58.06 509.14 58.09 509.21 17.09 495.44 17.05"></polygon> <path class="cls-5" d="m335.34,16.41c-1.63,0-3.63.34-6.07,1.05-2.44.71-4.71,1.7-6.85,2.88l-.92-3.56-12.55-.03-.1,57.45,13.84.03.03-18.14c1.8.98,3.83,1.63,6.04,1.9,2.2.31,4.1.44,5.66.44,2.75,0,5.16-.37,7.19-1.09,2-.71,3.7-1.73,5.05-3.05,1.36-1.32,2.34-2.88,3.02-4.68.64-1.83.98-3.83.98-6.04v-12.04c.03-10.07-5.09-15.12-15.33-15.12Zm1.36,25.26c0,1.93-.54,3.26-1.59,4.04-1.05.78-2.37,1.15-3.93,1.15-1.26,0-2.51-.14-3.83-.44-1.32-.31-2.85-.85-4.58-1.63v-14.28c1.39-.78,2.95-1.46,4.75-2.04,1.76-.58,3.29-.85,4.54-.85s2.34.34,3.29,1.02c.92.71,1.39,2.04,1.39,4.04l-.03,8.99Z"></path> <path class="cls-5" d="m453.18,20.55c-3.19-2.75-8.24-4.14-15.09-4.14-2.92,0-6.04.34-9.36.98-3.32.68-6.68,2.14-10.04,4.48l5.97,8.75c2.17-1.53,4.38-2.48,6.48-2.82,2.14-.37,3.93-.54,5.43-.54,3.09,0,5.09.47,6.1,1.36.98.92,1.49,2.1,1.49,3.53v1.05h-11.22c-1.93,0-3.9.24-5.94.68-2,.47-3.83,1.22-5.49,2.2-1.66.98-2.98,2.31-4.04,3.87-1.02,1.56-1.53,3.49-1.53,5.77-.03,3.9,1.26,6.99,3.8,9.22,2.58,2.24,6.27,3.36,11.19,3.36,1.93,0,4-.24,6.21-.78,2.2-.51,4.54-1.39,6.99-2.65l.27.07.81,3.05,12.72.03.07-24.86c0-5.7-1.59-9.9-4.82-12.62Zm-8.92,24.62c-.88.51-2.17.98-3.8,1.49-1.66.47-3.43.75-5.29.75-1.53-.03-2.54-.31-3.15-.85-.58-.54-.88-1.15-.88-1.83,0-1.15.41-1.93,1.26-2.31.85-.41,1.87-.58,3.05-.58h8.82v3.32Z"></path> </g> <g> <path class="cls-6" d="m193.45,109.83c-2.14-1.17-3.82-2.78-5.04-4.83s-1.82-4.38-1.82-6.96.61-4.9,1.84-6.96c1.23-2.06,2.92-3.67,5.06-4.83,2.14-1.17,4.54-1.75,7.2-1.75,2.16,0,4.12.38,5.91,1.13,1.78.75,3.29,1.84,4.51,3.27l-3.16,2.97c-1.91-2.06-4.25-3.08-7.04-3.08-1.81,0-3.42.39-4.85,1.18-1.43.79-2.55,1.89-3.35,3.29s-1.2,3-1.2,4.78.4,3.37,1.2,4.78c.8,1.41,1.92,2.5,3.35,3.29,1.43.79,3.05,1.18,4.85,1.18,2.78,0,5.13-1.04,7.04-3.12l3.16,3.01c-1.23,1.43-2.74,2.52-4.53,3.27-1.79.75-3.77,1.13-5.92,1.13-2.66,0-5.06-.58-7.2-1.75Z"></path> <path class="cls-6" d="m235.42,107.1v4.1h-19.75v-26.33h19.22v4.1h-14.33v6.85h12.71v4.03h-12.71v7.26h14.86Z"></path> <path class="cls-6" d="m262.05,99.82c.88,1.09,1.32,2.45,1.32,4.08,0,2.31-.85,4.1-2.56,5.38-1.71,1.28-4.18,1.92-7.41,1.92h-12.49v-26.33h11.77c2.96,0,5.27.59,6.92,1.77s2.48,2.85,2.48,5c0,1.38-.33,2.57-1,3.57-.67,1-1.62,1.77-2.88,2.29,1.68.45,2.96,1.22,3.84,2.31Zm-16.33-3.71h6.55c1.58,0,2.78-.31,3.61-.94.83-.63,1.24-1.55,1.24-2.78s-.41-2.16-1.24-2.8c-.83-.64-2.03-.96-3.61-.96h-6.55v7.49Zm12.72,7.41c0-2.56-1.73-3.84-5.19-3.84h-7.52v7.75h7.52c3.46,0,5.19-1.3,5.19-3.91Z"></path> <path class="cls-6" d="m288.69,107.1v4.1h-19.75v-26.33h19.22v4.1h-14.33v6.85h12.71v4.03h-12.71v7.26h14.86Z"></path> <path class="cls-6" d="m310.94,86c1.69.75,2.99,1.83,3.89,3.24.9,1.4,1.35,3.07,1.35,5s-.45,3.57-1.35,4.98c-.9,1.42-2.2,2.5-3.89,3.25-1.69.75-3.68,1.13-5.96,1.13h-5.94v7.6h-4.89v-26.33h10.83c2.28,0,4.27.38,5.96,1.13Zm-1.33,12.11c1.1-.9,1.66-2.19,1.66-3.88s-.55-2.97-1.66-3.87c-1.1-.9-2.72-1.35-4.85-1.35h-5.72v10.46h5.72c2.13,0,3.75-.45,4.85-1.35Z"></path> <path class="cls-6" d="m326.12,109.83c-2.16-1.17-3.85-2.78-5.08-4.85-1.23-2.07-1.84-4.38-1.84-6.94s.61-4.87,1.84-6.94c1.23-2.07,2.92-3.69,5.08-4.85,2.16-1.17,4.58-1.75,7.26-1.75s5.1.58,7.26,1.75c2.16,1.17,3.85,2.78,5.08,4.83,1.23,2.06,1.84,4.38,1.84,6.96s-.62,4.9-1.84,6.96c-1.23,2.06-2.92,3.67-5.08,4.83-2.16,1.17-4.58,1.75-7.26,1.75s-5.1-.58-7.26-1.75Zm12-3.72c1.4-.79,2.51-1.89,3.31-3.31s1.2-3,1.2-4.76-.4-3.34-1.2-4.76-1.91-2.52-3.31-3.31-2.98-1.18-4.74-1.18-3.34.39-4.74,1.18c-1.41.79-2.51,1.89-3.31,3.31-.8,1.42-1.2,3-1.2,4.76s.4,3.34,1.2,4.76c.8,1.42,1.91,2.52,3.31,3.31,1.4.79,2.98,1.18,4.74,1.18s3.34-.39,4.74-1.18Z"></path> <path class="cls-6" d="m351.92,95.93h10.34v3.91h-10.34v-3.91Z"></path> <path class="cls-6" d="m385.95,99.9c.89,1.12,1.33,2.43,1.33,3.93,0,1.58-.51,2.95-1.54,4.12-1.03,1.17-2.4,2.06-4.12,2.69-1.72.63-3.59.94-5.62.94-1.76,0-3.52-.24-5.29-.73-1.77-.49-3.4-1.22-4.91-2.2l1.58-3.57c1.15.78,2.43,1.37,3.84,1.79,1.4.41,2.8.62,4.18.62,1.98,0,3.63-.39,4.95-1.17s1.97-1.84,1.97-3.2c0-1.15-.48-2.03-1.43-2.63s-2.27-.9-3.95-.9h-6.13v-3.84h5.75c1.46,0,2.6-.3,3.42-.9.83-.6,1.24-1.42,1.24-2.45,0-1.23-.56-2.18-1.67-2.86-1.12-.68-2.54-1.02-4.27-1.02-1.18,0-2.4.17-3.65.51s-2.43.83-3.54,1.49l-1.54-3.95c1.35-.73,2.79-1.27,4.31-1.64,1.52-.36,3.03-.54,4.53-.54,1.96,0,3.76.3,5.4.9s2.95,1.46,3.93,2.58c.98,1.12,1.47,2.43,1.47,3.93,0,1.3-.35,2.45-1.05,3.42-.7.98-1.67,1.73-2.9,2.26,1.58.5,2.82,1.31,3.71,2.43Z"></path> <path class="cls-6" d="m410.27,105.11h-13.17l-2.6,6.09h-5.04l11.85-26.33h4.82l11.89,26.33h-5.12l-2.63-6.09Zm-1.62-3.84l-4.97-11.51-4.93,11.51h9.89Z"></path> <path class="cls-6" d="m445.37,84.87v26.33h-4.82v-22.2h-13.66v22.2h-4.81v-26.33h23.29Z"></path> <path class="cls-6" d="m470.23,105.11h-13.17l-2.6,6.09h-5.04l11.85-26.33h4.82l11.89,26.33h-5.12l-2.63-6.09Zm-1.62-3.84l-4.97-11.51-4.93,11.51h9.89Z"></path> <path class="cls-6" d="m508.3,107.06v9.74h-4.51v-5.61h-20.2v5.61h-4.55l.04-9.74h1.13c1.66-.08,2.82-1.3,3.48-3.67.66-2.37,1.07-5.76,1.22-10.18l.3-8.35h19.3v22.2h3.8Zm-19.94-4.87c-.43,2.27-1.1,3.89-2.03,4.87h13.35v-18.06h-10.31l-.19,4.66c-.13,3.41-.4,6.25-.83,8.52Z"></path> <path class="cls-8" d="m261.92,134.15h-13.05l.04,22.2h-4.81v-26.33h17.87l-.04,4.14Z"></path> <path class="cls-8" d="m257.82,155.73c-.6-.59-.9-1.34-.9-2.24s.29-1.68.88-2.26c.59-.58,1.32-.87,2.2-.87s1.61.29,2.2.87c.59.58.88,1.33.88,2.26s-.3,1.65-.9,2.24-1.33.88-2.18.88-1.58-.29-2.18-.88Z"></path> <path class="cls-8" d="m302.85,156.35l-.04-17.46-8.65,14.45h-2.18l-8.65-14.22v17.23h-4.63v-26.33h4.03l10.42,17.42,10.31-17.42h3.99l.08,26.33h-4.67Z"></path> <path class="cls-8" d="m319.82,154.97c-2.16-1.17-3.85-2.78-5.08-4.85-1.23-2.07-1.84-4.38-1.84-6.94s.61-4.87,1.84-6.94c1.23-2.07,2.92-3.69,5.08-4.85,2.16-1.17,4.58-1.75,7.26-1.75s5.1.58,7.26,1.75c2.16,1.17,3.85,2.78,5.08,4.83,1.23,2.06,1.84,4.38,1.84,6.96s-.62,4.9-1.84,6.96c-1.23,2.06-2.92,3.67-5.08,4.83-2.16,1.17-4.58,1.75-7.26,1.75s-5.1-.58-7.26-1.75Zm12-3.72c1.4-.79,2.51-1.89,3.31-3.31s1.2-3,1.2-4.76-.4-3.34-1.2-4.76-1.91-2.52-3.31-3.31-2.98-1.19-4.74-1.19-3.34.4-4.74,1.19c-1.41.79-2.51,1.89-3.31,3.31-.8,1.42-1.2,3-1.2,4.76s.4,3.34,1.2,4.76c.8,1.42,1.91,2.52,3.31,3.31,1.4.79,2.98,1.18,4.74,1.18s3.34-.4,4.74-1.18Z"></path> <path class="cls-8" d="m351.59,154.97c-2.14-1.17-3.82-2.78-5.04-4.83-1.22-2.06-1.82-4.38-1.82-6.96s.61-4.9,1.84-6.96c1.23-2.06,2.92-3.67,5.06-4.83s4.54-1.75,7.2-1.75c2.16,0,4.12.38,5.91,1.13,1.78.75,3.29,1.84,4.51,3.27l-3.16,2.97c-1.91-2.06-4.25-3.08-7.04-3.08-1.81,0-3.42.4-4.85,1.19-1.43.79-2.55,1.89-3.35,3.29-.8,1.41-1.2,3-1.2,4.78s.4,3.37,1.2,4.78,1.92,2.5,3.35,3.29c1.43.79,3.05,1.18,4.85,1.18,2.78,0,5.13-1.04,7.04-3.12l3.16,3.01c-1.23,1.43-2.74,2.52-4.53,3.27-1.79.75-3.77,1.13-5.92,1.13-2.66,0-5.06-.58-7.2-1.75Z"></path> <path class="cls-8" d="m383.51,145.25h-4.89v11.1h-4.82v-26.33h4.82v11.02h5.04l7.56-11.02h5.19l-8.99,12.75,9.33,13.58h-5.53l-7.71-11.1Z"></path> <path class="cls-8" d="m421.27,144.97c.88,1.09,1.32,2.45,1.32,4.08,0,2.31-.85,4.1-2.56,5.38-1.71,1.28-4.18,1.92-7.41,1.92h-12.49v-26.33h11.77c2.96,0,5.27.59,6.92,1.77,1.66,1.18,2.48,2.85,2.48,5,0,1.38-.33,2.57-1,3.57-.67,1-1.62,1.77-2.88,2.29,1.68.45,2.96,1.22,3.84,2.31Zm-16.33-3.71h6.55c1.58,0,2.78-.31,3.61-.94.83-.63,1.24-1.55,1.24-2.78s-.41-2.16-1.24-2.8c-.83-.64-2.03-.96-3.61-.96h-6.55v7.49Zm12.72,7.41c0-2.56-1.73-3.84-5.19-3.84h-7.52v7.75h7.52c3.46,0,5.19-1.3,5.19-3.91Z"></path> <path class="cls-8" d="m445.61,150.25h-13.17l-2.6,6.09h-5.04l11.85-26.33h4.82l11.89,26.33h-5.12l-2.63-6.09Zm-1.62-3.84l-4.97-11.51-4.93,11.51h9.89Z"></path> </g> </g> </g> </svg> 