<?xml version="1.0" encoding="UTF-8"?> <svg xmlns="http://www.w3.org/2000/svg" width="392" height="310" viewBox="0 0 392 310" fill="none"> <path opacity="0.79" fill-rule="evenodd" clip-rule="evenodd" d="M67.2827 1.95383C64.5717 5.75946 61.1497 13.9823 60.5017 18.2479C59.2192 26.6932 62.0214 35.051 68.8128 43.0349C72.3797 47.2279 72.634 47.8786 71.1797 49.0846C69.3715 50.5845 61.7377 61.1674 57.6953 67.7785C55.1059 72.013 53.7745 73.7475 54.011 72.577C56.3853 60.8326 54.1963 52.6446 46.5301 44.5941C42.6979 40.5697 36.1217 35.9253 35.3484 36.6981C34.322 37.7239 32.3702 44.2794 31.7375 48.8274C30.1335 60.3548 34.8196 70.1209 45.6938 77.9118C48.1311 79.6585 50.1257 81.269 50.1257 81.4908C50.1257 81.7125 49.1727 83.9841 48.0082 86.5378C46.1071 90.7076 40.2369 107.377 39.5852 110.456C39.4416 111.135 39.1323 110.32 38.8884 108.623C38.6475 106.943 38.1725 104.331 37.8327 102.819C35.5862 92.8227 27.486 84.6586 16.2786 81.0936L11.9201 79.7074L11.5228 81.0301C11.304 81.7571 11.0979 84.295 11.0643 86.6692C10.8492 101.91 18.3478 112.705 32.6141 117.691C34.8484 118.472 36.8393 119.273 37.0374 119.471C37.2361 119.669 36.9597 122.382 36.4236 125.501C35.8876 128.619 35.1259 135.622 34.7298 141.062L34.0103 150.956L32.034 146.411C28.9036 139.214 25.3037 135.125 19.4567 132.123C14.7907 129.727 7.82939 127.868 3.52714 127.868C0.0745774 127.868 0 127.904 0 129.573C0 132.394 1.74401 138.287 3.98316 143.033C6.58786 148.552 11.2569 153.299 16.6338 155.895C20.6787 157.848 28.2036 159.638 32.3726 159.638H34.8435V162.967C34.8435 167.272 36.3784 178.678 37.8486 185.298C38.4831 188.154 38.9318 190.565 38.8462 190.656C38.76 190.747 38.002 189.785 37.1609 188.518C34.9566 185.197 30.1512 180.712 26.9083 178.948C25.3685 178.111 21.6898 176.95 18.7342 176.369C14.1055 175.461 12.6072 175.414 7.93453 176.036C0.790396 176.987 0.429125 177.145 0.908987 179.119C1.59302 181.933 6.23209 189.16 9.67915 192.781C15.5017 198.899 23.7205 201.745 33.2046 200.927C35.9554 200.69 38.9807 200.444 39.9282 200.381C41.589 200.27 41.7461 200.52 44.2671 207.292C45.7061 211.156 48.3004 217.314 50.0328 220.976C51.7646 224.638 53.1821 227.749 53.1821 227.89C53.1821 228.031 51.9975 227.176 50.5493 225.99C49.1018 224.804 46.0068 222.93 43.6723 221.825C39.6696 219.931 39.0455 219.817 32.704 219.824C25.8245 219.831 22.3891 220.672 15.1954 224.109L12.9697 225.173L15.1019 227.993C20.1927 234.728 28.1725 240.058 35.4107 241.56C40.0547 242.523 46.7422 241.518 53.4817 238.844L58.7534 236.752L60.3434 239.282C63.0331 243.559 68.4228 250.721 73.0735 256.196L77.5078 261.418L74.6463 260.003C69.8043 257.608 62.9316 256.51 57.8322 257.316C52.4498 258.168 44.8001 261.871 40.6128 265.652L37.5943 268.376L40.0394 270.496C43.8612 273.81 51.624 277.411 56.5846 278.171C64.733 279.419 73.8553 276.667 80.9292 270.824C82.5521 269.484 84.0822 268.387 84.3298 268.387C84.5773 268.387 85.3035 268.971 85.9442 269.684C87.6588 271.592 100.611 281.88 104.692 284.575C106.631 285.854 108.136 286.982 108.037 287.08C107.939 287.179 106.765 287.006 105.43 286.697C99.9861 285.435 92.6005 286.291 87.3226 288.794C83.8059 290.462 78.2578 295.282 75.0828 299.428C73.4598 301.547 72.1321 303.506 72.1321 303.782C72.1321 304.058 73.483 304.864 75.1341 305.574C86.0304 310.259 97.0048 309.759 105.378 304.199C108.679 302.006 114.824 295.905 116.063 293.59L116.798 292.216L123.349 295.538C135.592 301.747 148.197 306.222 161.062 308.928C168.562 310.506 169.295 310.433 169.317 308.099C169.324 307.415 167.199 306.728 160.921 305.384C150.872 303.233 138.811 299.167 128.371 294.41C117.785 289.587 118.36 290.213 120.107 285.4C123.396 276.344 123.258 267.835 119.701 260.445C117.69 256.266 110.39 248.401 106.477 246.198L104.502 245.086L102.91 248.561C102.035 250.472 100.882 254.599 100.349 257.732C98.8509 266.531 100.171 272.425 105.32 279.937L107.164 282.628L104.166 280.603C101.424 278.751 93.2301 272.278 88.0623 267.88L85.9588 266.091L87.6435 264.091C89.8589 261.459 93.4985 254.202 94.5273 250.364C96.3465 243.58 95.1239 236.158 90.9555 228.675C89.0538 225.263 84.5749 219.5 83.8426 219.524C83.3572 219.54 80.4004 223.599 78.0909 227.419C73.7361 234.623 72.7122 243.954 75.3951 251.977L76.8989 256.474L74.4403 253.725C71.588 250.535 62.7513 238.806 61.6405 236.736C60.9376 235.425 61.1515 235.088 64.7007 231.928C68.5585 228.494 72.7367 222.972 74.2924 219.251C76.9399 212.917 76.5872 204.123 73.3516 195.815C70.6564 188.894 70.8288 189.041 67.8347 191.115C64.3846 193.504 59.2639 199.253 57.1855 203.069C54.085 208.761 52.9804 216.192 54.3552 222.108C54.648 223.368 54.7599 224.399 54.6034 224.399C53.5899 224.399 43.3306 199.744 44.0825 199.115C44.2121 199.006 46.2721 197.902 48.6598 196.662C56.0961 192.798 62.3918 186.303 64.5564 180.264C65.9147 176.474 66.5064 169.796 65.9642 164.374C65.2887 157.62 65.0295 157.005 63.0581 157.49C59.9821 158.247 53.4792 162.309 49.9093 165.705C44.3936 170.95 41.9497 175.871 41.0578 183.53L40.603 187.436L39.5858 183.059C38.5962 178.799 37.0154 168.352 36.4872 162.58L36.2256 159.718L38.6365 159.311C46.9745 157.903 56.249 153.268 59.8391 148.714C63.9378 143.515 66.3358 136.803 67.0474 128.54L67.4368 124.019L64.3956 124.422C62.7231 124.644 59.4228 125.458 57.0614 126.231C46.8779 129.565 41.2143 134.868 37.483 144.564L36.0318 148.335L36.4078 141.004C36.7562 134.213 38.0729 123.494 38.8657 120.995C39.1592 120.07 40.0339 119.926 45.3411 119.926C57.7344 119.926 65.8059 116.118 71.6522 107.514C74.3486 103.545 77.5775 96.1207 77.6129 93.8076C77.6331 92.4659 77.4766 92.4329 71.0379 92.4329C58.1837 92.4329 50.9308 95.8396 44.5098 104.892C42.8165 107.28 41.6306 108.547 41.8751 107.707C44.5941 98.3696 49.957 84.0617 51.3966 82.3033C51.7743 81.8421 53.2726 82.0944 56.3798 83.1434C59.1123 84.0653 62.8558 84.7624 66.1023 84.953C74.8456 85.4662 81.4683 82.8312 88.3068 76.1174C91.5375 72.946 96.1356 66.3098 95.6484 65.5217C95.0768 64.5967 87.2108 62.3325 82.9446 61.8645C74.0381 60.887 66.2931 63.4829 59.8831 69.5937C57.8787 71.5047 56.2386 72.8812 56.2386 72.6527C56.2386 71.3117 68.5677 53.225 71.9915 49.5434L73.5264 47.8926L76.2296 49.7517C80.3594 52.5915 86.1838 55.0212 90.7776 55.821C96.8679 56.881 101.505 56.2004 107.281 53.3997C112.341 50.9468 120.66 44.5703 120.281 43.4351C119.91 42.3201 111.539 37.5577 107.489 36.1568C99.7837 33.4912 90.6199 34.4938 83.5271 38.7784C81.8938 39.7651 80.4114 40.4274 80.2341 40.2496C80.0562 40.0724 79.1821 40.4463 78.2902 41.0805L76.6697 42.234L78.3654 38.7717C83.3908 28.5126 82.9085 18.5681 76.9307 9.17163C74.782 5.79428 69.8508 0.179009 69.0335 0.179009C68.7663 0.179009 67.9784 0.977525 67.2827 1.95383ZM112.477 0.600567C108.851 1.20663 103.116 3.47938 99.7868 5.63054C95.3843 8.47453 92.2716 12.1763 89.9151 17.37C88.1845 21.1848 86.1917 29.107 86.1917 32.1716C86.1917 33.2187 85.2742 34.4352 83.1353 36.2252C81.4542 37.6317 80.0788 39.0912 80.0788 39.4688C80.0788 39.8458 81.5233 38.7344 83.2881 36.9981C86.27 34.0655 86.8006 33.7955 90.7764 33.1839C106.436 30.7749 115.061 23.4392 118.63 9.49238C119.28 6.95081 119.813 3.8154 119.813 2.52507V0.179009L116.909 0.262098C115.312 0.30792 113.318 0.460048 112.477 0.600567ZM272.024 2.71019C272.024 8.40549 275.438 17.648 279.327 22.4788C283.722 27.9383 291.296 31.6675 301.06 33.1796C305.033 33.7949 305.568 34.0674 308.548 36.9981C310.313 38.7344 311.757 39.8458 311.757 39.4688C311.757 39.0912 310.418 37.6622 308.781 36.2924C305.973 33.9427 305.781 33.5902 305.382 30.0723C304.899 25.8054 303.019 19.3348 301.223 15.7583C296.921 7.19275 287.462 1.31905 276.455 0.37879L272.024 0V2.71019ZM319.16 3.58202C309.526 14.1173 307.44 26.3767 313.247 38.3294C315.233 42.4166 315.249 43.2811 313.298 41.1275C312.698 40.4634 311.982 40.0578 311.71 40.2258C311.437 40.3944 309.892 39.734 308.276 38.7583C301.216 34.4938 292.038 33.4961 284.347 36.1568C280.297 37.5577 271.926 42.3201 271.555 43.4351C271.186 44.5403 279.424 50.8454 284.555 53.3857C294.281 58.2012 305.196 56.9103 315.673 49.7059L318.442 47.8022L322.116 52.4234C326.03 57.3465 332.884 67.5079 334.679 71.0496C335.694 73.0504 335.524 72.9612 332.036 69.6535C325.442 63.4017 317.761 60.8601 308.631 61.9097C304.71 62.36 298.294 64.1226 296.468 65.2498C295.041 66.1314 300.883 74.2577 305.955 78.447C314.161 85.2243 324.397 86.8403 335.516 83.1128C338.556 82.0938 340.052 81.8457 340.397 82.3033C342.049 84.4954 350.721 108.07 350.102 108.687C349.988 108.802 348.751 107.158 347.355 105.034C341.541 96.1958 333.61 92.4329 320.798 92.4329C313.207 92.4329 313.367 92.2606 315.41 98.1936C318.151 106.155 323.473 113.009 329.344 116.135C334.519 118.893 339.163 119.926 346.383 119.926C351.807 119.926 352.676 120.068 352.972 120.999C353.695 123.276 355.221 135.801 355.521 141.92L355.836 148.335L353.968 143.861C349.927 134.184 344.436 129.226 334.216 126.025C332.118 125.368 329.095 124.653 327.498 124.438L324.594 124.045V126.899C324.594 131.436 326.357 138.832 328.462 143.129C332.269 150.898 339.256 155.919 349.963 158.577L355.465 159.943L355.312 162.387C354.685 172.457 350.955 191.279 350.898 184.662C350.873 181.752 349.345 176.061 347.75 172.935C345.738 168.992 340.184 163.599 335.054 160.604C329.183 157.177 327.294 156.65 326.773 158.293C325.079 163.627 325.341 174.774 327.289 180.264C329.433 186.306 335.634 192.74 343.007 196.572C345.488 197.862 347.615 198.997 347.734 199.094C348.4 199.642 341.71 216.276 338.171 222.871L336.859 225.315L337.298 223.177C337.54 222.001 337.719 218.564 337.697 215.54C337.65 208.962 336.353 205.136 332.262 199.519C329.737 196.05 322.77 189.574 321.563 189.574C320.963 189.574 317.744 197.103 316.599 201.183C315.393 205.482 315.641 214.344 317.071 218.016C318.849 222.584 322.881 228.171 327.035 231.826C329.055 233.603 330.707 235.29 330.707 235.574C330.707 236.75 316.018 256.168 315.128 256.168C315.022 256.168 315.63 254.175 316.478 251.739C317.829 247.854 317.983 246.596 317.724 241.506C317.385 234.844 315.871 230.454 311.894 224.6C308.022 218.902 308.039 218.906 304.732 222.962C296.121 233.528 294.246 244.845 299.31 255.678C300.609 258.457 302.6 261.95 303.735 263.442L305.798 266.155L303.948 267.729C298.075 272.724 292.603 277.073 288.857 279.722L284.6 282.733L286.481 279.989C290.368 274.319 292.196 269.026 292.196 263.444C292.196 259.736 290.455 251.976 288.806 248.336L287.334 245.086L285.333 246.198C282.157 247.963 274.299 256.17 272.44 259.665C271.506 261.421 270.333 264.816 269.833 267.211C268.565 273.292 269.601 280.491 272.917 288.635C273.244 289.437 271.943 290.308 266.409 292.993C253.843 299.089 239.99 303.691 226.33 306.305C223.509 306.845 222.512 307.295 222.518 308.026C222.54 310.35 223.25 310.426 230.762 308.914C241.173 306.818 254.887 302.077 265.725 296.825L275.04 292.312L276.293 294.337C278.488 297.887 285.74 304.189 290.1 306.334C293.736 308.123 294.955 308.399 300.127 308.607C304.212 308.77 307.182 308.544 309.827 307.867C314.254 306.733 319.704 304.495 319.704 303.811C319.704 303.552 318.25 301.455 316.474 299.152C312.621 294.156 307.065 289.791 302.175 287.918C298.019 286.325 290.678 285.713 286.711 286.628C285.207 286.974 283.897 287.178 283.798 287.08C283.7 286.982 285.205 285.852 287.144 284.568C291.431 281.73 297.814 276.732 303.345 271.885L307.465 268.274L311.191 271.073C322.341 279.451 332.974 280.727 344.412 275.062C347.129 273.716 350.452 271.662 351.797 270.496L354.242 268.376L351.223 265.652C347.036 261.871 339.386 258.168 334.004 257.316C328.87 256.504 322.025 257.611 317.091 260.051C314.251 261.456 314.179 261.463 315.297 260.216C320.422 254.499 328.36 244.23 331.511 239.242L333.08 236.757L338.129 238.791C344.954 241.542 350.575 242.449 355.617 241.614C360.715 240.769 366.248 238.134 370.441 234.55C373.734 231.736 378.368 226.413 378.381 225.43C378.392 224.674 371.173 221.567 366.742 220.42C364.062 219.726 361.151 219.474 357.608 219.63C353.194 219.824 351.706 220.189 347.764 222.046C345.21 223.248 341.978 225.265 340.581 226.525C339.185 227.786 338.043 228.644 338.043 228.431C338.043 228.219 339.597 224.956 341.496 221.181C343.396 217.406 346.128 211.156 347.567 207.292C350.092 200.514 350.245 200.27 351.908 200.39C352.856 200.457 356.106 200.699 359.132 200.925C371.653 201.864 381.173 196.613 388.019 184.992C391.097 179.769 391.711 177.673 390.321 177.14C389.774 176.93 386.885 176.434 383.902 176.036C379.241 175.416 377.727 175.461 373.161 176.358C370.237 176.932 366.985 177.837 365.934 178.37C362.276 180.223 358.182 183.751 355.639 187.242C354.231 189.174 353.013 190.688 352.933 190.608C352.851 190.527 353.309 188.112 353.949 185.242C355.36 178.91 356.993 166.801 356.993 162.661V159.638H359.464C363.679 159.638 371.175 157.84 375.331 155.832C383.913 151.687 390.191 142.154 391.562 131.188L392 127.686L386.875 128.019C377.917 128.6 369.607 132.404 364.516 138.254C362.584 140.475 359.806 145.56 358.56 149.157C357.914 151.022 357.762 150.206 357.08 141.232C356.661 135.73 355.89 128.661 355.365 125.524C354.834 122.35 354.644 119.605 354.937 119.337C355.227 119.071 356.977 118.375 358.827 117.789C372.864 113.341 381.029 101.87 380.761 86.9747C380.721 84.7685 380.515 82.2306 380.302 81.335L379.916 79.7068L375.558 81.093C367.309 83.7171 359.764 89.4826 356.684 95.514C354.905 98.9988 353.517 103.884 352.961 108.623L352.532 112.289L351.143 107.096C349.576 101.234 347.023 94.1338 343.722 86.4517L341.48 81.2366L342.838 80.267C350.968 74.4618 356.058 69.053 358.294 63.8415C360.096 59.6388 360.794 53.8225 360.096 48.8329C359.495 44.5385 357.438 37.6482 356.469 36.6792C355.691 35.9021 349.081 40.64 345.012 44.8922C337.834 52.3917 335.904 59.7384 337.819 72.2715C338.087 74.0237 337.435 73.2411 334.211 67.9349C330.143 61.2413 326.974 56.7655 322.048 50.7604L319.188 47.2731L321.645 44.6509C333.568 31.9302 334.721 18.0799 325.105 3.08104C324.082 1.48462 323.026 0.179009 322.758 0.179009C322.491 0.179009 320.872 1.71006 319.16 3.58202Z" fill="#DEC363"></path> </svg> 